<svg width="41" height="48" viewBox="0 0 41 48" fill="none" xmlns="http://www.w3.org/2000/svg">
<path d="M37.4185 47H2.91667C2.40833 47 1.92082 46.7981 1.56138 46.4386C1.20193 46.0792 1 45.5917 1 45.0833V2.91667C1 2.40833 1.20193 1.92082 1.56138 1.56138C1.92082 1.20193 2.40833 1 2.91667 1H25.9185L39.3352 14.4167V45.0833C39.3352 45.335 39.2856 45.5843 39.1893 45.8168C39.093 46.0493 38.9518 46.2606 38.7738 46.4386C38.5958 46.6166 38.3846 46.7578 38.152 46.8541C37.9195 46.9504 37.6702 47 37.4185 47Z" stroke="#5378FB" stroke-width="2" stroke-linecap="round" stroke-linejoin="round"/>
<path d="M25.918 1V14.4167H39.3365" stroke="#5378FB" stroke-width="2" stroke-linecap="round" stroke-linejoin="round"/>
<path d="M14.418 29.75H25.918" stroke="#5378FB" stroke-width="2" stroke-linecap="round" stroke-linejoin="round"/>
<path d="M20.168 24V35.5" stroke="#5378FB" stroke-width="2" stroke-linecap="round" stroke-linejoin="round"/>
</svg>
