<svg width="22" height="20" viewBox="0 0 22 20" fill="none" xmlns="http://www.w3.org/2000/svg">
<path d="M19.3333 18.75H2.66667C2.22464 18.75 1.80072 18.5744 1.48816 18.2618C1.17559 17.9493 1 17.5254 1 17.0833V5.41667C1 4.97464 1.17559 4.55072 1.48816 4.23816C1.80072 3.92559 2.22464 3.75 2.66667 3.75H5.99939L7.66606 1.25H14.3327L15.9994 3.75H19.3333C19.7754 3.75 20.1993 3.92559 20.5118 4.23816C20.8244 4.55072 21 4.97464 21 5.41667V17.0833C21 17.5254 20.8244 17.9493 20.5118 18.2618C20.1993 18.5744 19.7754 18.75 19.3333 18.75Z" stroke="#00004F" stroke-width="1.5" stroke-linecap="round" stroke-linejoin="round"/>
<path d="M11 14.5835C13.0711 14.5835 14.75 12.9046 14.75 10.8335C14.75 8.76243 13.0711 7.0835 11 7.0835C8.92893 7.0835 7.25 8.76243 7.25 10.8335C7.25 12.9046 8.92893 14.5835 11 14.5835Z" stroke="#00004F" stroke-width="1.5" stroke-linecap="round" stroke-linejoin="round"/>
</svg>
